# xmcd
#
# Track frame offsets:
#	150
#	20500
#	48106
#
# Disc length: 1019 seconds
#
# Revision: 0
# Processed by: cddbd v1.4PL0 Copyright (c) Steve Scherf et al.
# Submitted via: audiograbber 1.81.03
#
DISCID=1903f903
DTITLE=Popa Chubby - The Bad And The Chubby Single Bonus
DYEAR=2002
DGENRE=Blues
TTITLE0=Run Rudolph Run/Rudolph The Red Nosed Reindeer
TTITLE1=Merry Christmas Baby
TTITLE2=Midnight Ride/Peace
EXTD=
EXTT0=
EXTT1=
EXTT2=
PLAYORDER=
